<svg xmlns="http://www.w3.org/2000/svg" viewBox="0 0 80 80" fill="#0BE041">
  <path d="m13.33,0C5.97,0,0,5.97,0,13.33s5.97,13.34,13.33,13.33c7.36,0,13.33-5.97,13.33-13.33,0-7.36-5.97-13.33-13.33-13.33Z"/>
  <path d="m66.67,53.33c-5.75,0-10.95-2.33-14.71-6.09l-.5-.5c2.45-4.16,2.45-9.32,0-13.48l.5-.5c3.77-3.76,8.97-6.09,14.71-6.09,7.36,0,13.33-5.97,13.33-13.33S74.03,0,66.67,0s-13.33,5.97-13.33,13.33c0,5.74-2.33,10.95-6.09,14.71l-.5.5c-5.11-3.01-11.78-2.36-16.17,2.02-4.39,4.39-5.03,11.06-2.02,16.17l-.5.5c-3.77,3.76-8.97,6.09-14.71,6.09-7.36,0-13.33,5.97-13.33,13.33s5.97,13.33,13.33,13.33,13.33-5.97,13.33-13.33c0-5.75,2.33-10.95,6.09-14.71l.5-.5c4.16,2.45,9.32,2.45,13.48,0l.5.5c3.76,3.77,6.09,8.97,6.09,14.71,0,7.36,5.97,13.33,13.33,13.33s13.33-5.97,13.33-13.33-5.97-13.33-13.33-13.33Z"/>
</svg>
